<?xml version="1.0" encoding="utf-8"?>
<!-- Generator: Adobe Illustrator 26.0.0, SVG Export Plug-In . SVG Version: 6.00 Build 0)  -->
<svg version="1.1" id="Livello_1" xmlns="http://www.w3.org/2000/svg" xmlns:xlink="http://www.w3.org/1999/xlink" x="0px" y="0px"
	 viewBox="0 0 75 75" style="enable-background:new 0 0 75 75;" xml:space="preserve">
<style type="text/css">
	.st0{fill:#0F0F0F;}
</style>
<path class="st0" d="M67.5,11.3c-2.8-0.5-5.1-2.7-5.6-5.6c-0.1-0.6-0.6-1-1.1-1c-0.6,0-1,0.4-1.1,1c-0.5,2.8-2.7,5.1-5.6,5.6
	c-0.6,0.1-1,0.6-1,1.1c0,0.6,0.4,1,1,1.1c1.2,0.2,2.2,0.7,3.1,1.4c-1.4,1.9-3.9,2.1-6.7,2.3c-3.1,0.3-6.5,0.6-8.5,3.5l-5.6-2.6
	c-0.2-0.1-0.5-0.1-0.8,0c-0.3,0.1-0.5,0.3-0.6,0.5l-2.1,4.6c-3.6-0.4-7.3,0-10.9,1.2c-5.9,2.2-10.7,6.5-13.3,12.2
	c-2.7,5.7-2.9,12.1-0.8,18c2.2,5.9,6.5,10.7,12.2,13.3c3.2,1.5,6.6,2.2,9.9,2.2c8.9,0,17.4-5,21.4-13.6c2.7-5.7,2.9-12.1,0.8-18
	c-1-2.9-2.6-5.4-4.6-7.6l2.5-5.3c0.2-0.5,0-1.1-0.5-1.4l-5.8-2.7c1.5-1.8,4-2.1,6.8-2.3c2.8-0.2,5.9-0.5,7.9-2.8
	c0.5,0.8,0.9,1.7,1.1,2.6c0.1,0.6,0.6,1,1.1,1c0.6,0,1-0.4,1.1-1c0.5-2.8,2.7-5.1,5.6-5.6c0.6-0.1,1-0.6,1-1.1
	C68.5,11.9,68.1,11.4,67.5,11.3L67.5,11.3z M20.9,33.5c-2.3,1.6-4.1,3.8-5.3,6.4c-1,2.2-1.5,4.4-1.5,6.8c0,0.6-0.5,1-1,1l0,0
	c-0.6,0-1-0.5-1-1c0-2.7,0.6-5.2,1.7-7.7c1.3-2.9,3.4-5.4,6-7.2c0.5-0.3,1.1-0.2,1.4,0.3C21.5,32.5,21.3,33.1,20.9,33.5L20.9,33.5z
	 M27.2,30.8c-0.5,0.1-1,0.2-1.5,0.4c-0.1,0-0.2,0-0.3,0c-0.4,0-0.9-0.3-1-0.7c-0.2-0.5,0.2-1.1,0.7-1.3c0.6-0.2,1.1-0.3,1.7-0.4
	c0.6-0.1,1.1,0.3,1.2,0.8C28.1,30.2,27.7,30.7,27.2,30.8L27.2,30.8z M60.8,16.1c-0.8-1.6-2.1-2.9-3.7-3.7c1.6-0.8,2.9-2.1,3.7-3.7
	c0.8,1.6,2.1,2.9,3.7,3.7C63,13.2,61.7,14.5,60.8,16.1z"/>
</svg>
